<svg width="50" height="66" viewBox="0 0 50 66" fill="none" xmlns="http://www.w3.org/2000/svg">
<path fill-rule="evenodd" clip-rule="evenodd" d="M32.207 27.161C31.7256 29.6539 31.3536 32.1666 31.092 34.692C30.033 44.752 30.48 53.688 31.705 57.678C32.431 59.815 35.162 62.624 37.783 59.701C40.626 56.498 43.75 58.352 39.957 62.117C37.617 64.422 33.268 65.995 28.918 65.545C25.795 65.152 23.9 63.13 22.784 60.04C22.34 60.938 21.837 61.725 21.224 62.342C19.105 64.535 16.539 65.772 13.25 65.434C6.61301 64.704 2.71201 57.511 4.55101 47.281C6.50301 36.49 15.87 32.556 21.279 35.424C21.391 34.075 21.502 32.725 21.614 31.32C21.6415 31.1795 21.6553 31.039 21.669 30.8985C21.6828 30.758 21.6965 30.6175 21.724 30.477C20.0786 30.8387 18.424 31.1575 16.762 31.433C-7.21299 35.423 1.04001 15.864 6.89401 10.75C13.53 5.017 14.254 8.895 12.191 10.188C8.51101 12.548 6.89401 26.093 17.432 26.093C19.161 26.093 20.778 25.981 22.394 25.812C25.685 7.49 35.665 -1.391 43.75 1.532C52.726 4.792 51.779 19.067 32.207 27.161ZM21.279 51.554C21.055 48.012 21.055 44.022 21.112 39.918C21.112 39.6576 21.1268 39.3974 21.1412 39.1449C21.1548 38.9068 21.168 38.6754 21.168 38.457C17.822 36.939 14.533 42.11 13.695 49.249C12.749 57.622 16.483 62.062 18.603 60.04C20.22 58.409 21.056 53.237 21.279 51.554ZM45.365 8.389C43.581 5.747 37.058 8.951 33.267 22.721C42.802 18.167 46.593 10.299 45.365 8.389Z" fill="black"/>
</svg>
